<?xml version="1.0" encoding="UTF-8"?><svg id="Layer_1" xmlns="http://www.w3.org/2000/svg" viewBox="0 0 295.85 142.39"><defs><style>.cls-1{fill:#90c322;}</style></defs><circle class="cls-1" cx="104.26" cy="24.5" r="24.5"/><circle class="cls-1" cx="62.19" cy="63.97" r="19.62"/><circle class="cls-1" cx="35.61" cy="32.74" r="13.87"/><circle class="cls-1" cx="13.19" cy="79.91" r="13.19"/><g><path d="M12.43,99.76h4.23v31.16h-4.23v-31.16Z"/><path d="M25.71,99.58h4.03v5.62c1.61-2.15,3.4-3.76,5.36-4.83,1.96-1.07,4.09-1.6,6.4-1.6s4.42,.6,6.24,1.79c1.81,1.19,3.15,2.79,4.02,4.81,.86,2.02,1.3,5.16,1.3,9.42v16.13h-4.03v-14.95c0-3.61-.15-6.02-.45-7.23-.47-2.07-1.36-3.63-2.69-4.68-1.33-1.05-3.05-1.57-5.19-1.57-2.44,0-4.63,.81-6.56,2.42-1.93,1.61-3.2,3.61-3.82,5.99-.38,1.55-.58,4.4-.58,8.53v11.49h-4.03v-31.34Z"/><path d="M65.2,87.94h4.03v11.64h6.4v3.49h-6.4v27.86h-4.03v-27.86h-5.5v-3.49h5.5v-11.64Z"/><path d="M108.07,120.52l3.4,1.79c-1.11,2.19-2.4,3.96-3.86,5.3-1.46,1.34-3.1,2.37-4.93,3.07-1.83,.7-3.89,1.05-6.2,1.05-5.11,0-9.11-1.68-12-5.03-2.88-3.35-4.33-7.14-4.33-11.37,0-3.97,1.22-7.52,3.66-10.63,3.09-3.96,7.24-5.93,12.43-5.93s9.61,2.03,12.8,6.08c2.27,2.86,3.42,6.43,3.46,10.72h-28.2c.08,3.64,1.24,6.63,3.49,8.95,2.25,2.33,5.03,3.49,8.34,3.49,1.6,0,3.15-.28,4.66-.83,1.51-.55,2.79-1.29,3.85-2.21,1.06-.92,2.2-2.4,3.43-4.45Zm0-8.44c-.54-2.15-1.32-3.87-2.35-5.16-1.03-1.29-2.39-2.32-4.08-3.11-1.69-.79-3.47-1.18-5.34-1.18-3.08,0-5.72,.99-7.93,2.97-1.62,1.44-2.84,3.6-3.66,6.48h23.36Z"/><path d="M119.42,87.48h4.03v43.44h-4.03v-43.44Z"/><path d="M131.23,87.48h4.03v43.44h-4.03v-43.44Z"/><path d="M170.04,120.52l3.4,1.79c-1.11,2.19-2.4,3.96-3.86,5.3-1.46,1.34-3.1,2.37-4.93,3.07-1.83,.7-3.89,1.05-6.2,1.05-5.11,0-9.11-1.68-12-5.03-2.88-3.35-4.33-7.14-4.33-11.37,0-3.97,1.22-7.52,3.66-10.63,3.09-3.96,7.24-5.93,12.43-5.93s9.61,2.03,12.8,6.08c2.27,2.86,3.42,6.43,3.46,10.72h-28.2c.08,3.64,1.24,6.63,3.49,8.95,2.25,2.33,5.03,3.49,8.34,3.49,1.6,0,3.15-.28,4.66-.83,1.51-.55,2.79-1.29,3.85-2.21,1.06-.92,2.2-2.4,3.43-4.45Zm0-8.44c-.54-2.15-1.32-3.87-2.35-5.16-1.03-1.29-2.39-2.32-4.08-3.11-1.69-.79-3.47-1.18-5.34-1.18-3.08,0-5.72,.99-7.93,2.97-1.62,1.44-2.84,3.6-3.66,6.48h23.36Z"/><path d="M212.42,106.09l-3.2,1.99c-2.76-3.67-6.53-5.5-11.31-5.5-3.82,0-6.99,1.23-9.51,3.68-2.52,2.46-3.78,5.44-3.78,8.95,0,2.28,.58,4.43,1.74,6.45,1.16,2.01,2.75,3.58,4.78,4.69,2.02,1.11,4.29,1.67,6.81,1.67,4.6,0,8.36-1.83,11.28-5.5l3.2,2.1c-1.5,2.26-3.51,4.01-6.04,5.25-2.53,1.24-5.4,1.87-8.63,1.87-4.96,0-9.07-1.57-12.33-4.72-3.27-3.15-4.9-6.98-4.9-11.49,0-3.04,.76-5.85,2.29-8.46,1.53-2.6,3.62-4.63,6.29-6.09,2.67-1.46,5.66-2.19,8.96-2.19,2.07,0,4.08,.32,6.01,.95,1.93,.63,3.57,1.46,4.91,2.48,1.34,1.02,2.49,2.32,3.43,3.89Z"/><path d="M223.68,87.94h4.03v11.64h6.4v3.49h-6.4v27.86h-4.03v-27.86h-5.5v-3.49h5.5v-11.64Z"/><path d="M236.79,99.58h4.26l10.77,24.14,10.46-24.14h4.29l-18.7,42.81h-4.26l6.03-13.84-12.87-28.97Z"/><path d="M268.22,99.58h4.84l8.34,11.47,8.25-11.47h4.85l-10.67,14.81,12.02,16.54h-4.91l-9.54-13.16-9.49,13.16h-4.81l11.88-16.51-10.75-14.84Z"/></g></svg>